<svg aria-hidden="true" style="position: absolute; width: 0; height: 0; overflow: hidden;" version="1.1" xmlns="http://www.w3.org/2000/svg" xmlns:xlink="http://www.w3.org/1999/xlink">
<defs>
<symbol id="icon-arrows" viewBox="0 0 45 32">
<path fill="#aaa" style="fill: var(--color1, #aaa)" d="M28.024 20.832h15.017v4.284h-15.017v6.427l-8.547-8.569 8.547-8.569v6.427z"></path>
<path fill="#aaa" style="fill: var(--color1, #aaa)" d="M15.214 7.978v-6.427l8.548 8.569-8.548 8.569v-6.427h-15.017v-4.284h15.017z"></path>
</symbol>
<symbol id="icon-envelop" viewBox="0 0 32 32">
<path d="M31.583 6.467l-9.663 9.601 9.663 9.601c0.175-0.365 0.281-0.769 0.281-1.2v-16.803c0-0.431-0.106-0.835-0.281-1.2z"></path>
<path d="M29.063 4.866h-26.262c-0.431 0-0.835 0.106-1.2 0.281l12.351 12.289c1.092 1.092 2.868 1.092 3.96 0l12.351-12.289c-0.365-0.175-0.769-0.281-1.2-0.281z"></path>
<path d="M0.28 6.467c-0.175 0.365-0.281 0.769-0.281 1.2v16.803c0 0.431 0.106 0.835 0.281 1.2l9.664-9.601-9.664-9.601z"></path>
<path d="M20.599 17.388l-1.367 1.368c-1.82 1.82-4.78 1.82-6.6 0l-1.367-1.368-9.664 9.601c0.365 0.175 0.769 0.281 1.2 0.281h26.262c0.431 0 0.835-0.106 1.2-0.281l-9.663-9.601z"></path>
</symbol>
<symbol id="icon-find" viewBox="0 0 32 32">
<path fill="#fff" style="fill: var(--color2, #fff)" d="M31.697 30.259l-8.262-8.13c2.164-2.351 3.493-5.459 3.493-8.88-0.001-7.318-6.028-13.249-13.464-13.249s-13.463 5.931-13.463 13.249c0 7.318 6.028 13.249 13.463 13.249 3.213 0 6.16-1.111 8.474-2.959l8.294 8.162c0.404 0.398 1.060 0.398 1.464 0 0.405-0.398 0.405-1.044 0.001-1.442zM13.463 24.46c-6.292 0-11.392-5.019-11.392-11.211s5.1-11.211 11.392-11.211c6.292 0 11.392 5.019 11.392 11.211s-5.1 11.211-11.392 11.211z"></path>
</symbol>
<symbol id="icon-find2" viewBox="0 0 30 32">
<path fill="#aaa" style="fill: var(--color1, #aaa)" d="M29.584 30.259l-7.711-8.13c2.019-2.351 3.26-5.459 3.26-8.88-0.001-7.318-5.627-13.249-12.567-13.249s-12.566 5.931-12.566 13.249c0 7.318 5.626 13.249 12.566 13.249 2.999 0 5.749-1.111 7.909-2.959l7.741 8.162c0.377 0.398 0.989 0.398 1.367 0 0.378-0.398 0.378-1.044 0.001-1.442zM12.566 24.46c-5.872 0-10.632-5.019-10.632-11.211s4.76-11.211 10.632-11.211c5.872 0 10.632 5.019 10.632 11.211s-4.76 11.211-10.632 11.211z"></path>
</symbol>
<symbol id="icon-heart" viewBox="0 0 36 32">
<path fill="#feb302" style="fill: var(--color3, #feb302)" d="M32.735 3.132c-1.841-2.019-4.366-3.132-7.112-3.132-2.052 0-3.932 0.656-5.587 1.951-0.835 0.653-1.591 1.453-2.259 2.386-0.667-0.933-1.424-1.732-2.259-2.386-1.654-1.294-3.534-1.951-5.586-1.951-2.746 0-5.272 1.112-7.112 3.132-1.819 1.996-2.82 4.722-2.82 7.678 0 3.042 1.121 5.826 3.526 8.763 2.152 2.627 5.245 5.294 8.828 8.382 1.223 1.055 2.61 2.25 4.049 3.523 0.38 0.337 0.868 0.523 1.375 0.523s0.994-0.185 1.374-0.522c1.439-1.274 2.827-2.47 4.050-3.525 3.582-3.087 6.675-5.754 8.827-8.381 2.406-2.936 3.526-5.721 3.526-8.763 0-2.955-1.002-5.682-2.821-7.678z"></path>
</symbol>
<symbol id="icon-map" viewBox="0 0 32 32">
<path d="M15.939 0c-6.366 0-11.545 5.179-11.545 11.545 0 7.9 10.331 19.498 10.771 19.988 0.413 0.46 1.135 0.459 1.547 0 0.44-0.49 10.771-12.088 10.771-19.988 0-6.366-5.179-11.545-11.545-11.545zM15.939 17.353c-3.203 0-5.808-2.606-5.808-5.809s2.606-5.808 5.808-5.808c3.203 0 5.808 2.606 5.808 5.808s-2.606 5.808-5.808 5.808z"></path>
</symbol>
<symbol id="icon-tel" viewBox="0 0 32 32">
<path d="M31.161 23.485l-4.475-4.466c-1.598-1.595-4.315-0.957-4.955 1.116-0.479 1.435-2.078 2.233-3.516 1.914-3.196-0.797-7.512-4.944-8.311-8.293-0.479-1.435 0.479-3.030 1.918-3.509 2.078-0.638 2.717-3.349 1.119-4.944l-4.475-4.466c-1.279-1.116-3.196-1.116-4.315 0l-3.037 3.030c-3.037 3.19 0.32 11.643 7.831 19.139s15.982 11.005 19.179 7.815l3.037-3.030c1.119-1.276 1.119-3.19 0-4.306z"></path>
</symbol>
<symbol id="icon-check" viewBox="0 0 42 32">
<path fill="#fff" style="fill: var(--color2, #fff); stroke: var(--color2, #fff)" stroke="#fff" stroke-linejoin="miter" stroke-linecap="butt" stroke-miterlimit="4" stroke-width="0.64" d="M6.263 15.205l-0.22-0.21-3.307 3.132 11.651 11.114 24.477-23.351-3.285-3.134-21.192 20.197-8.124-7.75z"></path>
</symbol>
<symbol id="icon-gamburger" viewBox="0 0 63 32">
<path fill="#feb302" style="fill: var(--color1, #feb302)" d="M3.478 0h55.652c1.921 0 3.478 1.557 3.478 3.478s-1.557 3.478-3.478 3.478h-55.652c-1.921 0-3.478-1.557-3.478-3.478s1.557-3.478 3.478-3.478z"></path>
<path fill="#feb302" style="fill: var(--color1, #feb302)" d="M3.478 12.522h55.652c1.921 0 3.478 1.557 3.478 3.478s-1.557 3.478-3.478 3.478h-55.652c-1.921 0-3.478-1.557-3.478-3.478s1.557-3.478 3.478-3.478z"></path>
<path fill="#feb302" style="fill: var(--color1, #feb302)" d="M3.478 25.043h55.652c1.921 0 3.478 1.557 3.478 3.478s-1.557 3.478-3.478 3.478h-55.652c-1.921 0-3.478-1.557-3.478-3.478s1.557-3.478 3.478-3.478z"></path>
</symbol>
</defs>
</svg>
